<?xml version="1.0" standalone="no"?>
<!DOCTYPE svg PUBLIC "-//W3C//DTD SVG 20010904//EN"
 "http://www.w3.org/TR/2001/REC-SVG-20010904/DTD/svg10.dtd">
<svg version="1.0" xmlns="http://www.w3.org/2000/svg"
 width="1800.000000pt" height="1600.000000pt" viewBox="0 0 1800.000000 1600.000000"
 preserveAspectRatio="xMidYMid meet">

<g transform="translate(0.000000,1600.000000) scale(0.100000,-0.100000)"
fill="#000000" stroke="none">
<path d="M9020 13592 c-187 -107 -1717 -983 -2377 -1361 -73 -42 -133 -78
-133 -81 0 -9 -56 23 1670 -965 421 -241 807 -462 859 -492 202 -117 221 -126
221 -106 0 10 1 218 3 463 l2 445 295 0 c403 -1 648 -30 960 -115 643 -175
1145 -442 1645 -874 434 -375 848 -950 1061 -1471 162 -398 252 -739 298
-1135 55 -478 41 -862 -50 -1320 -131 -663 -436 -1325 -847 -1838 l-106 -133
68 61 c190 171 475 512 654 785 413 631 658 1342 727 2112 16 177 7 777 -13
928 -101 731 -275 1247 -624 1850 -293 506 -659 931 -1147 1335 -372 307 -835
575 -1350 780 -385 153 -860 263 -1371 320 -104 11 -193 24 -197 28 -4 4 -9
213 -10 464 l-3 455 -235 -135z"/>
<path d="M5424 11411 c-753 -741 -1213 -1713 -1326 -2801 -20 -193 -17 -739 5
-920 38 -313 93 -586 177 -878 90 -312 199 -565 417 -970 267 -496 689 -991
1197 -1406 313 -255 665 -468 1116 -675 463 -212 1023 -355 1629 -416 85 -8
155 -15 157 -15 2 0 5 -209 6 -464 l3 -464 380 217 c2031 1161 2379 1361 2373
1366 -2 2 -50 29 -108 62 -121 69 -1049 600 -1800 1031 -283 163 -589 337
-680 389 l-165 93 -3 -466 -2 -467 -323 6 c-485 8 -742 49 -1162 184 -508 163
-967 423 -1400 792 -444 378 -860 954 -1080 1496 -138 341 -244 721 -279 1005
-44 355 -49 429 -43 705 8 412 57 733 168 1110 71 240 137 409 262 670 149
313 308 567 519 828 43 53 77 97 75 97 -2 0 -53 -49 -113 -109z"/>
<path d="M8959 10093 l-197 -3 6 -189 5 -189 -44 -12 c-254 -64 -420 -151
-570 -300 -117 -116 -184 -229 -235 -396 -26 -84 -28 -100 -28 -289 -1 -191 1
-203 26 -280 87 -256 280 -419 638 -539 120 -40 129 -42 465 -135 361 -101
461 -142 560 -233 72 -66 100 -130 99 -228 -1 -87 -18 -132 -71 -191 -48 -53
-101 -83 -198 -111 -71 -20 -101 -23 -275 -23 -168 0 -209 3 -300 23 -237 53
-502 162 -677 279 -48 32 -94 62 -101 66 -11 7 -97 -158 -254 -486 l-28 -57
60 -40 c227 -154 631 -303 912 -336 55 -6 56 -7 62 -43 3 -20 6 -105 6 -188
l0 -153 265 0 265 0 2 182 3 181 110 19 c404 68 670 239 812 523 114 226 120
585 14 810 -107 226 -287 365 -623 480 -116 40 -355 108 -428 123 -82 15 -363
97 -427 123 -203 85 -285 195 -269 362 18 192 145 295 402 328 279 35 653 -65
923 -246 l80 -54 72 137 c40 75 101 192 136 260 l63 122 -52 34 c-78 50 -280
148 -388 189 -129 49 -245 81 -372 103 l-108 18 0 86 c0 47 -3 129 -7 183 l-6
97 -66 -2 c-36 -2 -154 -4 -262 -5z"/>
</g>
</svg>
